<svg width="317" height="81" viewBox="0 0 317 81" fill="none" xmlns="http://www.w3.org/2000/svg">
<path d="M46.7972 35C46.7972 46.9738 36.5286 56.75 23.7736 56.75C11.0186 56.75 0.75 46.9738 0.75 35C0.75 23.0262 11.0186 13.25 23.7736 13.25C36.5286 13.25 46.7972 23.0262 46.7972 35Z" stroke="white" stroke-width="1.5"/>
<path d="M71.2498 35C71.2498 46.9738 60.9812 56.75 48.2262 56.75C35.4712 56.75 25.2026 46.9738 25.2026 35C25.2026 23.0262 35.4712 13.25 48.2262 13.25C60.9812 13.25 71.2498 23.0262 71.2498 35Z" stroke="white" stroke-width="1.5"/>
<line y1="-0.75" x2="16.2675" y2="-0.75" transform="matrix(0.918604 -0.395179 0.432932 0.901427 27.1699 27.9286)" stroke="white" stroke-width="1.5"/>
<line y1="-0.75" x2="18.035" y2="-0.75" transform="matrix(0.903902 -0.427739 0.467121 0.884193 29.8867 48.5)" stroke="white" stroke-width="1.5"/>
<line y1="-0.75" x2="20.5238" y2="-0.75" transform="matrix(0.926673 -0.37587 0.412508 0.910954 25.8115 34.3571)" stroke="white" stroke-width="1.5"/>
<line y1="-0.75" x2="22.2764" y2="-0.75" transform="matrix(0.914752 -0.404016 0.442243 0.896895 25.8115 39.5)" stroke="white" stroke-width="1.5"/>
<line y1="-0.75" x2="22.2764" y2="-0.75" transform="matrix(0.914752 -0.404016 0.442243 0.896895 27.1699 44.6429)" stroke="white" stroke-width="1.5"/>
<path d="M86.766 31.948C88.8873 31.8 90.9593 31.652 92.982 31.504C95.054 31.3067 97.2 31.1093 99.42 30.912C99.9133 30.9613 100.234 31.2327 100.382 31.726C100.53 32.17 100.333 32.4413 99.79 32.54C97.9647 32.7373 95.868 33.0087 93.5 33.354C91.132 33.6993 88.8873 34.1433 86.766 34.686C86.8647 36.2153 86.914 37.794 86.914 39.422C86.914 41.0007 86.9387 42.5793 86.988 44.158C87.0867 45.6873 87.2347 47.192 87.432 48.672C87.6787 50.1027 88.0487 51.4347 88.542 52.668C89.2327 53.5067 89.9233 54 90.614 54.148C91.3047 54.296 91.946 54.2467 92.538 54C93.1793 53.8027 93.7467 53.482 94.24 53.038C94.7827 52.5447 95.2513 52.076 95.646 51.632C95.9913 51.2867 96.2627 51.2867 96.46 51.632C96.7067 51.9773 96.5093 52.4953 95.868 53.186C95.572 53.5313 95.202 53.9013 94.758 54.296C94.314 54.6907 93.7713 55.0113 93.13 55.258C92.538 55.554 91.8473 55.7267 91.058 55.776C90.318 55.8747 89.504 55.8007 88.616 55.554C87.4813 55.258 86.6427 54.3453 86.1 52.816C85.5573 51.2867 85.138 49.5107 84.842 47.488C84.5953 45.416 84.4227 43.27 84.324 41.05C84.2253 38.83 84.102 36.832 83.954 35.056C81.7833 35.2533 80.18 35.426 79.144 35.574C78.1573 35.722 77.442 35.8207 76.998 35.87C76.554 35.9193 76.258 35.8947 76.11 35.796C75.962 35.6973 75.6907 35.4753 75.296 35.13C75.3453 34.8833 75.3453 34.6613 75.296 34.464C75.296 34.2173 75.296 34.02 75.296 33.872C75.3453 33.724 75.444 33.576 75.592 33.428C75.7893 33.28 76.1347 33.1567 76.628 33.058C77.368 32.8607 78.4287 32.762 79.81 32.762C81.2407 32.7127 82.622 32.5893 83.954 32.392C83.9047 30.8133 83.8553 29.58 83.806 28.692C83.7567 27.804 83.7073 27.0393 83.658 26.398C83.6087 25.7073 83.5593 25.0413 83.51 24.4C83.51 23.7587 83.51 22.92 83.51 21.884C83.51 21.6373 83.6333 21.4647 83.88 21.366C84.176 21.218 84.4967 21.144 84.842 21.144C85.1873 21.0947 85.508 21.144 85.804 21.292C86.1 21.3907 86.2973 21.5633 86.396 21.81C86.544 22.254 86.6427 22.92 86.692 23.808C86.7413 24.6467 86.766 25.5593 86.766 26.546C86.8153 27.4833 86.84 28.4453 86.84 29.432C86.84 30.4187 86.8153 31.2573 86.766 31.948ZM102.456 0.719998C102.506 0.867999 102.555 1.50933 102.604 2.644C102.654 3.72933 102.678 5.13533 102.678 6.862C102.728 8.58866 102.752 10.562 102.752 12.782C102.752 14.9527 102.752 17.1973 102.752 19.516C102.802 21.8347 102.826 24.1287 102.826 26.398C102.826 28.6673 102.826 30.764 102.826 32.688C102.826 34.5627 102.826 36.166 102.826 37.498C102.826 38.7807 102.826 39.644 102.826 40.088C103.369 37.6707 104.134 35.6727 105.12 34.094C106.156 32.5153 107.094 31.6767 107.932 31.578C108.919 31.3807 109.659 31.6027 110.152 32.244C110.695 32.836 111.114 33.6747 111.41 34.76C111.756 35.796 112.076 36.98 112.372 38.312C112.718 39.5947 113.162 40.828 113.704 42.012C114.247 43.196 114.987 44.2567 115.924 45.194C116.862 46.082 118.144 46.6247 119.772 46.822C118.49 47.9073 117.33 48.4007 116.294 48.302C115.308 48.2033 114.42 47.7593 113.63 46.97C112.841 46.1807 112.15 45.1693 111.558 43.936C110.966 42.7027 110.473 41.494 110.078 40.31C109.684 39.126 109.363 38.09 109.116 37.202C108.87 36.314 108.697 35.796 108.598 35.648C108.302 35.2533 107.982 35.2287 107.636 35.574C107.291 35.9193 106.921 36.462 106.526 37.202C106.181 37.942 105.836 38.8053 105.49 39.792C105.194 40.7293 104.923 41.642 104.676 42.53C104.43 43.3687 104.232 44.084 104.084 44.676C103.936 45.268 103.862 45.5393 103.862 45.49C103.714 46.1313 103.591 46.97 103.492 48.006C103.394 49.042 103.32 50.078 103.27 51.114C103.27 52.1007 103.27 53.0133 103.27 53.852C103.32 54.6413 103.394 55.1347 103.492 55.332C103.147 55.332 102.654 55.2087 102.012 54.962C101.371 54.7647 100.878 54.666 100.532 54.666C100.532 53.186 100.532 51.262 100.532 48.894C100.532 46.4767 100.532 43.8127 100.532 40.902C100.532 37.942 100.508 34.7847 100.458 31.43C100.458 28.0753 100.409 24.696 100.31 21.292C100.261 17.8387 100.187 14.4347 100.088 11.08C99.9896 7.676 99.8416 4.46933 99.6443 1.46C99.6443 1.36133 99.9403 1.18867 100.532 0.941999C101.124 0.645997 101.766 0.571997 102.456 0.719998ZM125.164 33.058C125.312 33.0087 125.731 32.8853 126.422 32.688C127.113 32.4413 127.68 32.392 128.124 32.54C129.555 32.4907 130.64 32.8607 131.38 33.65C132.169 34.4393 132.243 35.9687 131.602 38.238C130.665 40.754 129.407 42.8507 127.828 44.528C126.299 46.2053 124.473 47.8087 122.352 49.338C122.845 50.6207 123.585 51.336 124.572 51.484C125.559 51.632 126.595 51.484 127.68 51.04C128.765 50.5467 129.826 49.9053 130.862 49.116C131.898 48.3267 132.737 47.636 133.378 47.044C134.414 46.156 135.228 45.416 135.82 44.824C136.461 44.1827 137.127 43.418 137.818 42.53C137.966 42.4313 138.04 42.456 138.04 42.604C138.089 42.7027 138.089 42.8753 138.04 43.122C137.991 43.3687 137.917 43.714 137.818 44.158C137.67 44.5033 137.522 44.824 137.374 45.12C137.226 45.3667 137.004 45.6627 136.708 46.008C136.461 46.304 136.116 46.674 135.672 47.118C135.228 47.562 134.685 48.154 134.044 48.894C133.304 49.5847 132.589 50.2753 131.898 50.966C131.207 51.6073 130.467 52.1747 129.678 52.668C128.938 53.1613 128.099 53.5067 127.162 53.704C126.274 53.9013 125.238 53.9013 124.054 53.704C123.067 53.3587 122.278 52.9887 121.686 52.594C121.094 52.1993 120.625 51.8047 120.28 51.41C119.984 50.966 119.762 50.5713 119.614 50.226C119.466 49.8807 119.367 49.5847 119.318 49.338C119.071 48.3513 118.973 47.0193 119.022 45.342C119.071 43.6647 119.565 41.494 120.502 38.83C121.143 37.4487 121.834 36.2893 122.574 35.352C123.314 34.3653 124.177 33.6007 125.164 33.058ZM121.908 46.156C122.549 45.8107 123.289 45.342 124.128 44.75C125.016 44.1087 125.83 43.3933 126.57 42.604C127.359 41.7653 128.025 40.8527 128.568 39.866C129.16 38.8793 129.481 37.8433 129.53 36.758C129.678 36.018 129.653 35.5 129.456 35.204C129.357 35.056 129.259 34.982 129.16 34.982C128.321 34.5873 127.483 34.7107 126.644 35.352C125.805 35.9933 125.041 36.906 124.35 38.09C123.659 39.274 123.067 40.606 122.574 42.086C122.13 43.5167 121.908 44.8733 121.908 46.156ZM145.144 30.69C146.377 30.8873 147.389 31.1587 148.178 31.504C149.017 31.8493 149.658 32.244 150.102 32.688C150.595 33.0827 150.965 33.502 151.212 33.946C151.508 34.39 151.779 34.8093 152.026 35.204C151.977 35.4013 151.73 35.3767 151.286 35.13C150.891 34.8833 150.497 34.6367 150.102 34.39C149.017 33.6993 147.709 33.28 146.18 33.132C144.651 32.984 143.22 33.0827 141.888 33.428C140.605 33.724 139.569 34.2667 138.78 35.056C137.991 35.8453 137.793 36.8073 138.188 37.942C138.583 39.0767 139.273 40.0633 140.26 40.902C141.296 41.7407 142.431 42.5053 143.664 43.196C144.897 43.8373 146.131 44.4293 147.364 44.972C148.597 45.5147 149.609 46.0573 150.398 46.6C151.385 46.0573 152.223 45.6133 152.914 45.268C153.605 44.8733 154.221 44.528 154.764 44.232C155.307 43.8867 155.849 43.5907 156.392 43.344C156.984 43.048 157.65 42.7273 158.39 42.382C158.489 42.3327 158.563 42.308 158.612 42.308C158.711 42.308 158.711 42.382 158.612 42.53C158.563 42.6287 158.365 42.826 158.02 43.122C157.724 43.3687 157.231 43.7387 156.54 44.232C156.195 44.4787 155.553 44.898 154.616 45.49C153.679 46.082 152.667 46.7233 151.582 47.414C152.174 47.9567 152.643 48.524 152.988 49.116C153.284 49.6587 153.481 50.2507 153.58 50.892C153.728 51.484 153.629 52.1007 153.284 52.742C152.297 54.3207 151.187 55.554 149.954 56.442C148.721 57.33 147.586 57.9467 146.55 58.292C145.859 58.5387 145.095 58.5633 144.256 58.366C143.417 58.1687 142.751 57.774 142.258 57.182C141.715 56.3927 141.567 55.5787 141.814 54.74C142.11 53.9507 142.579 53.186 143.22 52.446C143.861 51.6567 144.601 50.9167 145.44 50.226C146.279 49.5353 147.019 48.9187 147.66 48.376C147.216 47.8827 146.353 47.2907 145.07 46.6C143.787 45.86 142.455 45.0707 141.074 44.232C139.742 43.344 138.533 42.4067 137.448 41.42C136.363 40.4333 135.771 39.4467 135.672 38.46C135.475 37.3747 135.623 36.3387 136.116 35.352C136.56 34.316 137.226 33.428 138.114 32.688C139.051 31.8987 140.112 31.3313 141.296 30.986C142.529 30.5913 143.812 30.4927 145.144 30.69ZM144.478 56.072C145.021 56.3187 145.637 56.3187 146.328 56.072C147.019 55.8253 147.66 55.4553 148.252 54.962C148.893 54.518 149.436 54.0247 149.88 53.482C150.373 52.89 150.694 52.372 150.842 51.928C150.99 51.5333 150.842 51.114 150.398 50.67C150.003 50.1767 149.584 49.782 149.14 49.486C148.597 49.8807 147.981 50.3987 147.29 51.04C146.599 51.632 145.983 52.2487 145.44 52.89C144.947 53.5313 144.577 54.148 144.33 54.74C144.083 55.332 144.133 55.776 144.478 56.072ZM161.692 39.496C162.827 39.7427 163.838 39.94 164.726 40.088C165.663 40.236 166.576 40.384 167.464 40.532C168.401 40.6307 169.413 40.7293 170.498 40.828C171.633 40.9267 172.965 41.05 174.494 41.198C174.938 41.6913 175.234 42.1107 175.382 42.456C175.53 42.752 175.727 43.2453 175.974 43.936C174.395 43.64 172.965 43.418 171.682 43.27C170.399 43.122 169.117 42.9987 167.834 42.9C166.601 42.8013 165.318 42.7273 163.986 42.678C162.654 42.5793 161.174 42.456 159.546 42.308C159.497 44.824 159.546 47.0687 159.694 49.042C159.842 50.966 159.842 52.7173 159.694 54.296C159.398 54.3453 159.151 54.296 158.954 54.148C158.806 54 158.658 53.8273 158.51 53.63C158.362 53.4327 158.189 53.2353 157.992 53.038C157.844 52.7913 157.622 52.6187 157.326 52.52C157.474 45.712 157.449 39.4467 157.252 33.724C157.055 28.0013 157.005 22.5253 157.104 17.296C157.104 16.3093 157.104 15.1993 157.104 13.966C157.153 12.6833 157.178 11.45 157.178 10.266C157.178 9.03266 157.153 7.94733 157.104 7.01C157.055 6.02333 156.956 5.35733 156.808 5.012C157.153 4.61733 157.474 4.37066 157.77 4.272C158.115 4.17333 158.707 4.09933 159.546 4.05C159.645 10.0687 159.645 16.0133 159.546 21.884C159.447 27.7547 159.447 33.3293 159.546 38.608C160.385 37.9667 161.273 37.1773 162.21 36.24C163.147 35.3027 164.011 34.39 164.8 33.502C165.639 32.614 166.354 31.8493 166.946 31.208C167.538 30.5173 167.908 30.1473 168.056 30.098C168.5 30.4927 168.944 30.838 169.388 31.134C169.881 31.3807 170.128 31.4793 170.128 31.43C168.895 32.8113 167.612 34.2913 166.28 35.87C164.948 37.3993 163.419 38.608 161.692 39.496ZM179.593 21.44C180.087 21.3413 180.383 21.6373 180.481 22.328C180.58 23.0187 180.481 23.5367 180.185 23.882C179.643 24.326 179.297 24.7207 179.149 25.066C179.001 25.362 178.656 25.5593 178.113 25.658C177.817 25.6087 177.546 25.6087 177.299 25.658C177.102 25.658 176.929 25.2387 176.781 24.4C176.979 23.8573 177.275 23.3147 177.669 22.772C178.113 22.2293 178.755 21.7853 179.593 21.44ZM179.815 31.06C180.062 33.428 180.235 36.0427 180.333 38.904C180.432 41.716 180.605 44.676 180.851 47.784C181.049 49.3627 181.246 50.596 181.443 51.484C181.641 52.372 181.789 53.2107 181.887 54C181.098 54.148 180.481 54.148 180.037 54C179.593 53.8027 179.174 53.5807 178.779 53.334C178.681 52.5447 178.557 51.2373 178.409 49.412C178.311 47.5867 178.187 45.6133 178.039 43.492C177.941 41.3213 177.817 39.2247 177.669 37.202C177.571 35.1793 177.472 33.576 177.373 32.392C177.571 32.2933 177.719 32.1453 177.817 31.948C177.965 31.7507 178.113 31.578 178.261 31.43C178.409 31.282 178.607 31.1587 178.853 31.06C179.1 30.9613 179.421 30.9613 179.815 31.06ZM189.767 31.43C189.767 32.8113 189.742 34.1927 189.693 35.574C189.693 36.9553 189.668 38.2873 189.619 39.57C189.619 40.8527 189.594 42.0613 189.545 43.196C189.545 44.3307 189.52 45.342 189.471 46.23C189.471 46.0327 189.57 45.564 189.767 44.824C190.014 44.0347 190.334 43.1467 190.729 42.16C191.124 41.1733 191.543 40.1373 191.987 39.052C192.48 37.9173 192.998 36.9307 193.541 36.092C194.084 35.204 194.626 34.5133 195.169 34.02C195.761 33.5267 196.304 33.3787 196.797 33.576C197.882 34.0693 198.647 34.7847 199.091 35.722C199.535 36.6593 199.856 37.7447 200.053 38.978C200.25 40.162 200.448 41.494 200.645 42.974C200.842 44.454 201.286 46.008 201.977 47.636C202.273 48.376 202.692 48.9187 203.235 49.264C203.827 49.6093 204.37 49.856 204.863 50.004C205.406 50.152 205.825 50.2507 206.121 50.3C206.466 50.3 206.59 50.374 206.491 50.522C205.258 51.4593 204.197 51.78 203.309 51.484C202.421 51.188 201.656 50.5467 201.015 49.56C200.423 48.524 199.93 47.3153 199.535 45.934C199.14 44.5033 198.77 43.1467 198.425 41.864C198.129 40.532 197.858 39.422 197.611 38.534C197.364 37.5967 197.093 37.128 196.797 37.128C196.353 37.1773 195.86 37.5967 195.317 38.386C194.824 39.1753 194.306 40.162 193.763 41.346C193.22 42.53 192.702 43.8373 192.209 45.268C191.716 46.6493 191.247 47.9567 190.803 49.19C190.408 50.4233 190.088 51.484 189.841 52.372C189.594 53.26 189.446 53.8027 189.397 54C188.657 54 188.188 54.0247 187.991 54.074C187.843 54.1233 187.572 53.8767 187.177 53.334C187.424 48.9927 187.498 44.898 187.399 41.05C187.35 37.1527 187.251 33.7733 187.103 30.912C187.103 30.468 187.202 30.246 187.399 30.246C187.646 30.246 187.892 30.3447 188.139 30.542C188.435 30.7393 188.731 30.9367 189.027 31.134C189.323 31.3313 189.57 31.43 189.767 31.43ZM211.887 38.682C211.887 38.83 211.961 39.5207 212.109 40.754C212.257 41.9873 212.43 43.492 212.627 45.268C212.825 47.044 213.047 48.968 213.293 51.04C213.589 53.0627 213.836 54.9867 214.033 56.812C214.28 58.6867 214.502 60.3147 214.699 61.696C214.897 63.1267 215.02 64.0393 215.069 64.434C214.773 64.3847 214.527 64.3353 214.329 64.286C214.132 64.2367 213.935 64.1133 213.737 63.916C213.54 63.7187 213.293 63.4227 212.997 63.028C212.751 62.6827 212.381 62.1647 211.887 61.474C211.246 56.9353 210.728 52.9887 210.333 49.634C209.988 46.23 209.692 43.4673 209.445 41.346C208.557 42.53 207.916 43.3193 207.521 43.714C207.127 44.1087 206.88 44.306 206.781 44.306C206.633 44.306 206.609 44.084 206.707 43.64C206.757 43.3933 206.806 43.1467 206.855 42.9C206.905 42.6533 206.954 42.4313 207.003 42.234C207.053 42.0367 207.127 41.864 207.225 41.716C207.571 41.2227 207.867 40.7293 208.113 40.236C208.409 39.7427 208.631 39.2987 208.779 38.904C208.977 38.4107 209.125 37.942 209.223 37.498C209.174 36.9553 209.125 36.4867 209.075 36.092C209.075 35.6973 209.075 35.3027 209.075 34.908C209.075 34.464 209.051 34.02 209.001 33.576C209.001 33.132 209.001 32.5647 209.001 31.874C209.001 31.2327 209.001 30.2707 209.001 28.988C209.001 27.656 209.001 26.2007 209.001 24.622C209.001 22.994 209.026 21.292 209.075 19.516C209.125 17.74 209.174 16.0627 209.223 14.484C209.322 12.856 209.421 11.4007 209.519 10.118C209.667 8.786 209.815 7.77467 209.963 7.084C210.309 5.65333 210.827 4.568 211.517 3.828C212.257 3.03867 213.022 2.59467 213.811 2.496C214.601 2.348 215.365 2.54533 216.105 3.088C216.895 3.58133 217.487 4.37066 217.881 5.456C218.325 6.54133 218.547 7.94733 218.547 9.674C218.547 11.4007 218.399 13.3 218.103 15.372C217.807 17.3947 217.388 19.516 216.845 21.736C216.352 23.956 215.809 26.1267 215.217 28.248C214.625 30.32 214.033 32.2687 213.441 34.094C212.849 35.9193 212.331 37.4487 211.887 38.682ZM211.295 34.464C212.529 30.8627 213.54 27.3353 214.329 23.882C215.119 20.3793 215.686 17.2467 216.031 14.484C216.426 11.7213 216.549 9.50133 216.401 7.824C216.303 6.09733 215.957 5.20933 215.365 5.16C214.428 4.81466 213.688 5.13533 213.145 6.122C212.603 7.10866 212.159 8.49 211.813 10.266C211.517 12.042 211.32 14.0893 211.221 16.408C211.123 18.6773 211.073 20.9467 211.073 23.216C211.123 25.4853 211.172 27.6313 211.221 29.654C211.271 31.6767 211.295 33.28 211.295 34.464ZM222.025 50.744C222.371 50.9907 222.938 50.5713 223.727 49.486C224.517 48.4007 225.281 47.0193 226.021 45.342C226.761 43.6153 227.378 41.79 227.871 39.866C228.365 37.942 228.513 36.2647 228.315 34.834C228.315 34.538 228.439 34.3653 228.685 34.316C228.932 34.2173 229.203 34.168 229.499 34.168C229.845 34.168 230.165 34.1927 230.461 34.242C230.807 34.2913 231.053 34.3407 231.201 34.39C231.103 35.4753 230.955 36.8567 230.757 38.534C230.609 40.162 230.511 41.79 230.461 43.418C230.412 45.046 230.461 46.526 230.609 47.858C230.807 49.19 231.226 50.0533 231.867 50.448C232.41 50.7933 233.027 50.7687 233.717 50.374C234.457 49.9793 235.148 49.486 235.789 48.894C236.48 48.302 237.097 47.784 237.639 47.34C238.182 46.8467 238.527 46.674 238.675 46.822C238.478 47.6607 238.059 48.4747 237.417 49.264C236.776 50.0533 236.036 50.7193 235.197 51.262C234.408 51.8047 233.545 52.1993 232.607 52.446C231.719 52.6433 230.905 52.594 230.165 52.298C229.869 52.2487 229.623 51.9773 229.425 51.484C229.277 50.9413 229.129 50.3247 228.981 49.634C228.883 48.9433 228.784 48.2033 228.685 47.414C228.636 46.6247 228.562 45.9093 228.463 45.268C228.069 46.0573 227.625 46.9453 227.131 47.932C226.638 48.9187 226.145 49.856 225.651 50.744C225.158 51.632 224.689 52.3967 224.245 53.038C223.801 53.6793 223.431 54.0493 223.135 54.148C222.149 54.5427 221.384 54.6167 220.841 54.37C220.299 54.1727 219.929 53.8767 219.731 53.482C219.435 53.334 219.213 52.8407 219.065 52.002C218.967 51.114 218.868 50.004 218.769 48.672C218.72 47.34 218.695 45.8353 218.695 44.158C218.695 42.4807 218.695 40.7787 218.695 39.052C218.695 37.276 218.671 35.5493 218.621 33.872C218.572 32.1453 218.498 30.5667 218.399 29.136C218.745 29.136 219.09 29.1607 219.435 29.21C219.731 29.2593 220.027 29.3333 220.323 29.432C220.619 29.4813 220.866 29.6293 221.063 29.876C221.31 31.0107 221.335 33.0087 221.137 35.87C220.989 38.7313 220.866 42.1847 220.767 46.23C220.767 46.378 220.767 46.674 220.767 47.118C220.817 47.5127 220.866 47.9567 220.915 48.45C221.014 48.9433 221.137 49.412 221.285 49.856C221.483 50.3 221.729 50.596 222.025 50.744ZM237.675 27.656C238.316 28.4947 238.908 29.3087 239.451 30.098C240.043 30.8873 240.61 31.7013 241.153 32.54C241.745 33.3787 242.362 34.316 243.003 35.352C243.644 36.3387 244.384 37.498 245.223 38.83C245.766 37.3993 246.234 36.0673 246.629 34.834C247.024 33.6007 247.32 32.1947 247.517 30.616C247.616 30.2213 247.887 30.1227 248.331 30.32C248.824 30.5173 249.219 30.69 249.515 30.838C249.663 31.1833 249.688 31.6767 249.589 32.318C249.49 32.9593 249.318 33.6253 249.071 34.316C248.874 35.0067 248.652 35.6727 248.405 36.314C248.158 36.906 247.986 37.3747 247.887 37.72C247.788 37.9667 247.665 38.2627 247.517 38.608C247.418 38.904 247.32 39.2247 247.221 39.57C247.073 39.9647 246.925 40.3593 246.777 40.754C247.912 43.5167 248.997 45.934 250.033 48.006C251.069 50.0287 251.76 51.558 252.105 52.594C252.105 52.9393 251.809 53.0133 251.217 52.816C250.674 52.5693 250.181 52.2487 249.737 51.854C249.145 50.6207 248.504 49.4367 247.813 48.302C247.122 47.1673 246.407 45.8847 245.667 44.454C245.42 45.1447 245.1 45.9587 244.705 46.896C244.36 47.784 243.99 48.7213 243.595 49.708C243.2 50.6453 242.806 51.5827 242.411 52.52C242.016 53.4573 241.671 54.3207 241.375 55.11C240.98 55.6033 240.635 55.8993 240.339 55.998C240.092 56.146 239.624 56.0967 238.933 55.85C239.821 53.6793 240.512 51.9527 241.005 50.67C241.548 49.338 241.992 48.228 242.337 47.34C242.682 46.4027 242.978 45.5147 243.225 44.676C243.472 43.8373 243.768 42.7767 244.113 41.494C243.57 40.754 242.954 39.8413 242.263 38.756C241.622 37.6213 240.956 36.5113 240.265 35.426C239.624 34.2913 238.982 33.2307 238.341 32.244C237.749 31.2573 237.231 30.542 236.787 30.098C236.442 29.6047 236.343 29.0373 236.491 28.396C236.59 27.7547 236.984 27.508 237.675 27.656ZM259.892 50.744C260.238 50.9907 260.805 50.5713 261.594 49.486C262.384 48.4007 263.148 47.0193 263.888 45.342C264.628 43.6153 265.245 41.79 265.738 39.866C266.232 37.942 266.38 36.2647 266.182 34.834C266.182 34.538 266.306 34.3653 266.552 34.316C266.799 34.2173 267.07 34.168 267.366 34.168C267.712 34.168 268.032 34.1927 268.328 34.242C268.674 34.2913 268.92 34.3407 269.068 34.39C268.97 35.4753 268.822 36.8567 268.624 38.534C268.476 40.162 268.378 41.79 268.328 43.418C268.279 45.046 268.328 46.526 268.476 47.858C268.674 49.19 269.093 50.0533 269.734 50.448C270.277 50.7933 270.894 50.7687 271.584 50.374C272.324 49.9793 273.015 49.486 273.656 48.894C274.347 48.302 274.964 47.784 275.506 47.34C276.049 46.8467 276.394 46.674 276.542 46.822C276.345 47.6607 275.926 48.4747 275.284 49.264C274.643 50.0533 273.903 50.7193 273.064 51.262C272.275 51.8047 271.412 52.1993 270.474 52.446C269.586 52.6433 268.772 52.594 268.032 52.298C267.736 52.2487 267.49 51.9773 267.292 51.484C267.144 50.9413 266.996 50.3247 266.848 49.634C266.75 48.9433 266.651 48.2033 266.552 47.414C266.503 46.6247 266.429 45.9093 266.33 45.268C265.936 46.0573 265.492 46.9453 264.998 47.932C264.505 48.9187 264.012 49.856 263.518 50.744C263.025 51.632 262.556 52.3967 262.112 53.038C261.668 53.6793 261.298 54.0493 261.002 54.148C260.016 54.5427 259.251 54.6167 258.708 54.37C258.166 54.1727 257.796 53.8767 257.598 53.482C257.302 53.334 257.08 52.8407 256.932 52.002C256.834 51.114 256.735 50.004 256.636 48.672C256.587 47.34 256.562 45.8353 256.562 44.158C256.562 42.4807 256.562 40.7787 256.562 39.052C256.562 37.276 256.538 35.5493 256.488 33.872C256.439 32.1453 256.365 30.5667 256.266 29.136C256.612 29.136 256.957 29.1607 257.302 29.21C257.598 29.2593 257.894 29.3333 258.19 29.432C258.486 29.4813 258.733 29.6293 258.93 29.876C259.177 31.0107 259.202 33.0087 259.004 35.87C258.856 38.7313 258.733 42.1847 258.634 46.23C258.634 46.378 258.634 46.674 258.634 47.118C258.684 47.5127 258.733 47.9567 258.782 48.45C258.881 48.9433 259.004 49.412 259.152 49.856C259.35 50.3 259.596 50.596 259.892 50.744ZM275.512 30.616C275.462 30.172 275.684 30.0733 276.178 30.32C276.72 30.5173 277.263 30.7393 277.806 30.986C278.003 32.1207 278.151 33.0333 278.25 33.724C278.348 34.3653 278.422 34.982 278.472 35.574C278.521 36.166 278.57 36.8073 278.62 37.498C278.669 38.1887 278.743 39.1013 278.842 40.236C279.286 39.1013 279.828 38.0653 280.47 37.128C281.111 36.1413 281.925 35.3027 282.912 34.612C283.948 33.9213 285.156 33.428 286.538 33.132C287.968 32.7867 289.67 32.6633 291.644 32.762C291.644 33.1567 291.496 33.502 291.2 33.798C290.953 34.0447 290.336 34.242 289.35 34.39C287.919 34.6367 286.661 35.13 285.576 35.87C284.54 36.5607 283.627 37.3747 282.838 38.312C282.098 39.2493 281.481 40.2607 280.988 41.346C280.544 42.382 280.174 43.344 279.878 44.232C279.828 44.676 279.754 45.3173 279.656 46.156C279.606 46.9453 279.557 47.8087 279.508 48.746C279.508 49.634 279.483 50.522 279.434 51.41C279.434 52.2487 279.483 52.9147 279.582 53.408C279.631 53.6547 279.508 53.852 279.212 54C278.965 54.0987 278.669 54.1727 278.324 54.222C277.978 54.2713 277.658 54.2467 277.362 54.148C277.066 54.0493 276.918 53.8767 276.918 53.63C277.016 48.5487 276.868 44.1827 276.474 40.532C276.128 36.832 275.808 33.5267 275.512 30.616ZM297.782 48.82C298.917 49.3627 300.2 48.524 301.63 46.304C303.11 44.0347 304.294 40.384 305.182 35.352C305.182 35.3027 305.33 35.3027 305.626 35.352C305.972 35.4013 306.317 35.4753 306.662 35.574C307.008 35.6727 307.328 35.796 307.624 35.944C307.92 36.092 308.068 36.2153 308.068 36.314C308.068 37.054 308.019 37.942 307.92 38.978C307.822 40.014 307.698 41.1487 307.55 42.382C307.452 43.6153 307.378 44.9227 307.328 46.304C307.279 47.6853 307.279 49.0667 307.328 50.448C308.66 49.3133 310.066 48.45 311.546 47.858C313.076 47.266 314.531 46.896 315.912 46.748C316.406 46.9947 316.652 47.1673 316.652 47.266C316.702 47.3153 316.603 47.4387 316.356 47.636C314.482 48.1787 312.829 48.9187 311.398 49.856C310.017 50.7933 308.685 51.8293 307.402 52.964C307.402 54.5427 307.427 56.2447 307.476 58.07C307.526 59.8953 307.55 61.7207 307.55 63.546C307.55 65.3713 307.526 67.172 307.476 68.948C307.476 70.724 307.378 72.3273 307.18 73.758C307.032 75.1887 306.786 76.3973 306.44 77.384C306.144 78.42 305.725 79.1107 305.182 79.456C304.788 79.7027 304.319 79.8507 303.776 79.9C303.283 79.9987 302.765 80.0233 302.222 79.974C301.729 79.9247 301.236 79.8013 300.742 79.604C300.298 79.456 299.928 79.234 299.632 78.938C298.695 78.0007 298.029 76.792 297.634 75.312C297.24 73.8813 297.042 72.3027 297.042 70.576C297.042 68.8493 297.24 67.0733 297.634 65.248C298.029 63.4227 298.547 61.6713 299.188 59.994C299.879 58.3167 300.693 56.7873 301.63 55.406C302.617 54.074 303.678 53.038 304.812 52.298C304.96 49.634 305.034 47.0193 305.034 44.454C304.541 45.7367 303.826 47.118 302.888 48.598C301.951 50.078 300.792 51.2373 299.41 52.076C297.881 52.7667 296.574 52.6927 295.488 51.854C294.452 51.0153 293.811 49.7327 293.564 48.006C293.318 45.9833 293.12 44.306 292.972 42.974C292.824 41.642 292.701 40.384 292.602 39.2C292.504 38.016 292.405 36.7827 292.306 35.5C292.257 34.2173 292.158 32.614 292.01 30.69C292.257 30.542 292.627 30.5173 293.12 30.616C293.614 30.6653 293.984 30.8133 294.23 31.06C294.378 31.06 294.477 31.4547 294.526 32.244C294.576 33.0333 294.625 34.0447 294.674 35.278C294.724 36.5113 294.798 37.868 294.896 39.348C294.995 40.7787 295.143 42.16 295.34 43.492C295.587 44.7747 295.883 45.9093 296.228 46.896C296.623 47.8827 297.141 48.524 297.782 48.82ZM305.33 55.036C305.034 55.3813 304.714 55.702 304.368 55.998C304.072 56.3433 303.776 56.7133 303.48 57.108C302.839 57.8973 302.222 58.958 301.63 60.29C301.038 61.622 300.52 63.0773 300.076 64.656C299.682 66.2347 299.41 67.8133 299.262 69.392C299.114 71.02 299.139 72.4507 299.336 73.684C299.583 74.9667 300.052 75.9533 300.742 76.644C301.433 77.384 302.395 77.68 303.628 77.532C304.122 77.4333 304.516 76.866 304.812 75.83C305.108 74.794 305.306 73.5113 305.404 71.982C305.552 70.502 305.626 68.8493 305.626 67.024C305.676 65.248 305.676 63.5213 305.626 61.844C305.577 60.216 305.503 58.7853 305.404 57.552C305.355 56.3187 305.33 55.48 305.33 55.036Z" fill="white"/>
</svg>
